<?xml version="1.0" encoding="UTF-8"?>
<svg id="Layer_2" data-name="Layer 2" xmlns="http://www.w3.org/2000/svg" viewBox="0 0 558.25 151.62">
  <defs>
    <style>
      .cls-1 {
        fill: #533afd;
      }

      .cls-2 {
        fill: #9181fe;
      }

      .cls-3 {
        opacity: .84;
      }

      .cls-4 {
        fill: #b4a9fe;
      }

      .cls-5 {
        fill: #ddd8ff;
      }
    </style>
  </defs>
  <g id="Layer_1" data-name="Layer 1">
    <g class="cls-3">
      <g>
        <path d="M185.65,86.46h-.14v17.28h-12.82v-53.72h14.98c12.02,0,23.47,3.96,23.47,18.22,0,7.92-5.26,13.18-11.95,15.91l14.11,19.59h-15.34l-12.31-17.28ZM185.5,61.4v14.98h3.31c5.69,0,9.65-2.88,9.65-7.92,0-4.68-3.38-7.06-9.79-7.06h-3.17Z"/>
        <path d="M235.4,105.75c-15.7,0-25.13-9.58-25.13-22.68s9.43-22.68,22.97-22.68c12.75,0,22.39,9.58,22.39,22.75v3.1h-32.69c1.01,6.48,5.33,9.94,12.6,9.94,5.9,0,9.94-2.02,13.1-4.82l6.7,7.13c-4.54,4.1-10.87,7.27-19.95,7.27ZM223.3,78.25h19.59c-1.3-5.11-4.68-8.14-9.79-8.14s-8.5,3.02-9.79,8.14Z"/>
        <path d="M277.52,120.16c-4.32,0-8.78-.36-13.68-1.37v-10.23c5.4,1.15,9.29,1.51,13.32,1.51,7.34,0,12.39-2.66,12.39-11.88v-2.16c-3.6,3.6-8.5,5.9-13.54,5.9-10.22,0-19.59-8.21-19.59-20.45s9.29-20.74,19.59-20.74c5.26,0,10.3,2.59,13.97,6.55v-4.9h11.45v35.35c0,15.99-7.92,22.39-23.91,22.39ZM289.54,81.56c0-5.76-4.61-10.44-10.3-10.44s-10.37,4.68-10.37,10.44,4.75,10.22,10.37,10.22,10.3-4.61,10.3-10.22Z"/>
        <path d="M342.82,95.75h-21.46l-2.88,7.99h-13.32l20.81-53.72h12.67l20.81,53.72h-13.75l-2.88-7.99ZM339.22,85.66l-7.06-19.66-7.13,19.66h14.19Z"/>
        <path d="M372.56,103.74h-11.88v-41.33h11.3v5.04c2.52-3.02,7.2-6.12,13.54-6.12,8.5,0,14.83,5.83,14.83,15.34v27.07h-11.95v-23.47c0-6.12-3.46-8.42-7.78-8.42-3.74,0-8.06,2.88-8.06,7.71v24.19Z"/>
        <path d="M437.14,103.16c-2.02,1.37-6.62,1.87-9.72,1.87-14.11,0-24.7-9.07-24.7-21.96s10.58-21.96,24.7-21.96c3.1,0,7.63.5,9.72,1.87v10.66h-.36c-2.23-1.94-5.83-2.45-9.07-2.45-7.2,0-12.53,5.04-12.53,11.88s5.33,11.88,12.53,11.88c3.24,0,6.84-.58,9.07-2.45h.36v10.66Z"/>
        <path d="M452.33,103.74h-11.88v-56.17h11.31v20.16c2.45-3.02,7.13-6.34,13.54-6.34,8.5,0,14.83,5.83,14.83,15.27v27.07h-11.95v-23.4c0-6.19-3.46-8.42-7.78-8.42-3.74,0-8.06,2.81-8.06,7.7v24.12Z"/>
        <path d="M531.1,83.07c0,12.67-10.37,22.68-24.34,22.68s-24.27-10.01-24.27-22.68,10.37-22.68,24.27-22.68,24.34,10.01,24.34,22.68ZM494.96,83.07c0,6.98,5.04,12.46,11.81,12.46s11.88-5.54,11.88-12.46-5.04-12.46-11.88-12.46-11.81,5.54-11.81,12.46Z"/>
        <path d="M545.5,103.74h-11.88v-41.33h11.31v8.93c1.44-3.17,5.83-9.14,11.95-9.14h1.37v13.03c-.5-.22-1.58-.36-2.3-.36-6.34,0-10.44,4.39-10.44,7.49v21.39Z"/>
      </g>
      <g>
        <path class="cls-5" d="M227.11,0c-3,0-5.96.02-8.87.06-2.91.04-5.78.09-8.6.16s-5.6.16-8.34.26c-2.74.1-5.43.22-8.09.36-2.65.14-5.27.29-7.84.45-2.57.16-5.11.34-7.6.54s-4.95.4-7.36.62c-2.42.22-4.79.45-7.13.7s-4.64.5-6.9.77c-2.26.27-4.49.55-6.68.84s-4.35.59-6.47.91c-2.12.31-4.21.64-6.26.97-2.05.33-4.07.68-6.05,1.03s-3.93.71-5.85,1.08c-1.92.37-3.8.75-5.65,1.14-1.85.39-3.67.78-5.46,1.18s-3.54.81-5.27,1.23c-1.73.42-3.42.84-5.08,1.28-1.66.43-3.3.87-4.9,1.32-1.61.45-3.18.9-4.73,1.36-1.55.46-3.06.92-4.55,1.39-1.49.47-2.95.95-4.38,1.43-1.43.48-2.84.97-4.22,1.46-1.38.49-2.73.99-4.05,1.49-1.32.5-2.62,1.01-3.9,1.52s-2.52,1.02-3.74,1.54c-1.22.52-2.42,1.04-3.58,1.57-1.17.53-2.31,1.06-3.43,1.59-1.12.53-2.22,1.07-3.29,1.61s-2.12,1.08-3.14,1.63c-1.02.55-2.02,1.09-3,1.65-.98.55-1.93,1.11-2.86,1.66-.93.56-1.84,1.12-2.72,1.68-.88.56-1.74,1.13-2.58,1.69-.84.57-1.66,1.13-2.45,1.7-.79.57-1.57,1.14-2.32,1.72-.75.57-1.48,1.15-2.19,1.73-.71.58-1.4,1.16-2.06,1.74-.67.58-1.31,1.17-1.94,1.75s-1.23,1.18-1.82,1.77c-.59.59-1.15,1.18-1.7,1.78-.55.59-1.07,1.19-1.58,1.78-.51.6-.99,1.19-1.46,1.79-.47.6-.91,1.2-1.34,1.8-.43.6-.84,1.2-1.23,1.81-.39.6-.76,1.21-1.11,1.81-.35.61-.68,1.21-1,1.82-.31.61-.61,1.22-.88,1.83-.28.61-.53,1.22-.77,1.83s-.46,1.22-.66,1.83c-.2.61-.38,1.22-.55,1.84-.16.61-.31,1.23-.44,1.84s-.24,1.23-.33,1.84c-.09.61-.16,1.23-.22,1.84-.05.61-.09,1.23-.11,1.84s-.02,1.23,0,1.84.05,1.23.11,1.84c.05.61.13,1.23.22,1.84.09.61.2,1.23.33,1.84s.27,1.23.44,1.84.35,1.23.55,1.84c.2.61.42,1.22.66,1.83s.5,1.22.77,1.83.57,1.22.88,1.83c.31.61.65,1.21,1,1.82.35.61.72,1.21,1.11,1.81s.8,1.21,1.23,1.81.88,1.2,1.34,1.8.95,1.2,1.46,1.79c.51.6,1.03,1.19,1.58,1.78s1.11,1.19,1.7,1.78,1.19,1.18,1.82,1.77c.63.59,1.27,1.17,1.94,1.75s1.36,1.16,2.06,1.74,1.44,1.16,2.19,1.73c.75.57,1.52,1.15,2.32,1.72.79.57,1.61,1.14,2.45,1.7s1.7,1.12,2.58,1.68c.88.56,1.79,1.11,2.72,1.66.93.55,1.88,1.1,2.86,1.64.98.54,1.97,1.08,3,1.61,1.02.53,2.07,1.06,3.14,1.59,1.07.53,2.17,1.05,3.29,1.57,1.12.52,2.26,1.03,3.43,1.54,1.17.51,2.36,1.01,3.58,1.51,1.22.5,2.47.99,3.74,1.48,1.27.49,2.57.97,3.9,1.45,1.32.48,2.68.95,4.05,1.42,1.38.47,2.78.93,4.22,1.39,1.43.46,2.89.91,4.38,1.35,1.49.45,3.01.88,4.55,1.32,1.55.43,3.12.86,4.73,1.28,1.61.42,3.24.83,4.9,1.24,1.66.41,3.36.8,5.08,1.2,1.73.39,3.48.78,5.27,1.15,1.79.38,3.61.74,5.46,1.1,1.85.36,3.73.71,5.65,1.06s3.87.68,5.85,1c1.98.33,4,.64,6.05.95,2.05.31,4.14.6,6.26.89,2.12.29,4.28.57,6.47.83,2.19.27,4.42.52,6.68.77,2.26.25,4.57.48,6.9.7s4.72.44,7.13.64c2.42.2,4.87.39,7.36.56s5.03.34,7.6.49,5.19.29,7.84.41c2.65.12,5.35.23,8.09.32,2.74.09,5.52.17,8.34.24,2.82.06,5.69.11,8.6.15,2.91.03,5.87.05,8.87.05h-18.36c-3,0-5.96-.02-8.87-.05-2.91-.03-5.78-.08-8.6-.15-2.82-.06-5.6-.14-8.34-.24s-5.43-.2-8.09-.32c-2.65-.12-5.27-.26-7.84-.41s-5.11-.31-7.6-.49-4.95-.36-7.36-.56c-2.42-.2-4.79-.41-7.13-.64s-4.64-.46-6.9-.7c-2.26-.25-4.49-.5-6.68-.77-2.19-.27-4.35-.55-6.47-.83-2.12-.29-4.21-.59-6.26-.89-2.05-.31-4.07-.62-6.05-.95-1.98-.33-3.93-.66-5.85-1s-3.8-.7-5.65-1.06c-1.85-.36-3.67-.73-5.46-1.1s-3.54-.76-5.27-1.15c-1.73-.39-3.42-.79-5.08-1.2s-3.3-.82-4.9-1.24c-1.6-.42-3.18-.85-4.73-1.28-1.55-.43-3.06-.87-4.55-1.32-1.49-.45-2.95-.9-4.38-1.35-1.43-.46-2.84-.92-4.22-1.39-1.38-.47-2.73-.94-4.05-1.42-1.32-.48-2.62-.96-3.9-1.45s-2.52-.98-3.74-1.48c-1.22-.5-2.42-1-3.59-1.51-1.17-.51-2.31-1.02-3.43-1.54-1.12-.52-2.22-1.04-3.29-1.57-1.07-.53-2.12-1.06-3.14-1.59-1.02-.53-2.02-1.07-3-1.61-.98-.54-1.93-1.09-2.86-1.64s-1.84-1.1-2.72-1.66c-.88-.56-1.74-1.12-2.58-1.68s-1.66-1.13-2.45-1.7c-.79-.57-1.57-1.14-2.32-1.72s-1.48-1.15-2.19-1.73-1.4-1.16-2.06-1.74-1.31-1.17-1.94-1.75c-.63-.59-1.23-1.18-1.82-1.77-.59-.59-1.15-1.18-1.7-1.78-.55-.59-1.07-1.19-1.58-1.78-.51-.6-.99-1.19-1.46-1.79-.47-.6-.91-1.2-1.34-1.8-.43-.6-.84-1.2-1.23-1.81s-.76-1.21-1.11-1.81c-.35-.61-.68-1.21-1-1.82-.31-.61-.61-1.22-.88-1.83s-.53-1.22-.77-1.83c-.24-.61-.46-1.22-.66-1.83-.2-.61-.38-1.22-.55-1.84-.16-.61-.31-1.23-.44-1.84s-.24-1.23-.33-1.84c-.09-.61-.16-1.23-.22-1.84-.05-.61-.09-1.23-.11-1.84-.02-.61-.02-1.23,0-1.84s.05-1.23.11-1.84c.05-.61.13-1.23.22-1.84.09-.61.2-1.23.33-1.84s.27-1.23.44-1.84c.16-.61.35-1.23.55-1.84.2-.61.42-1.22.66-1.83.24-.61.5-1.22.77-1.83.28-.61.57-1.22.88-1.83s.65-1.21,1-1.82c.35-.61.72-1.21,1.11-1.81.39-.6.8-1.21,1.23-1.81.43-.6.87-1.2,1.34-1.8.47-.6.95-1.2,1.46-1.79.51-.6,1.03-1.19,1.58-1.78.55-.59,1.11-1.19,1.7-1.78.59-.59,1.19-1.18,1.82-1.77.63-.59,1.27-1.17,1.94-1.75.67-.58,1.36-1.16,2.06-1.74.71-.58,1.44-1.16,2.19-1.73.75-.57,1.52-1.15,2.32-1.72.79-.57,1.61-1.14,2.45-1.7.84-.57,1.7-1.13,2.58-1.69.88-.56,1.79-1.12,2.72-1.68.93-.56,1.88-1.11,2.86-1.66.98-.55,1.97-1.1,3-1.65,1.02-.55,2.07-1.09,3.14-1.63,1.07-.54,2.17-1.08,3.29-1.61,1.12-.53,2.26-1.06,3.43-1.59,1.17-.53,2.36-1.05,3.58-1.57s2.47-1.03,3.74-1.54,2.57-1.01,3.9-1.52c1.32-.5,2.68-1,4.05-1.49s2.78-.98,4.22-1.46c1.43-.48,2.89-.96,4.38-1.43,1.49-.47,3.01-.93,4.55-1.39,1.55-.46,3.12-.91,4.73-1.36,1.6-.45,3.24-.88,4.9-1.32,1.66-.43,3.36-.86,5.08-1.28,1.73-.42,3.48-.83,5.27-1.23s3.61-.8,5.46-1.19c1.85-.39,3.73-.77,5.65-1.14,1.92-.37,3.87-.73,5.85-1.08,1.98-.35,4-.69,6.05-1.03,2.05-.33,4.14-.66,6.26-.97,2.12-.31,4.28-.61,6.47-.91,2.19-.29,4.42-.57,6.68-.84,2.26-.27,4.57-.53,6.9-.77,2.34-.24,4.72-.48,7.13-.7,2.42-.22,4.87-.43,7.36-.62,2.49-.19,5.03-.37,7.6-.54,2.57-.16,5.19-.32,7.84-.45s5.35-.26,8.09-.36c2.74-.1,5.52-.19,8.34-.26,2.82-.07,5.69-.13,8.6-.16,2.91-.04,5.87-.06,8.87-.06,1.84,0,3.44,0,4.93,0s2.87,0,4.25,0,2.75,0,4.25,0,3.1,0,4.93,0Z"/>
        <path class="cls-2" d="M282.19,0c-3,0-5.96.02-8.87.06s-5.78.09-8.6.16c-2.82.07-5.6.16-8.34.26-2.74.1-5.43.22-8.09.36s-5.27.29-7.84.45-5.11.34-7.6.54-4.95.4-7.36.62-4.79.45-7.13.7c-2.34.24-4.64.5-6.9.77-2.26.27-4.49.55-6.68.84s-4.35.59-6.47.91c-2.12.31-4.21.64-6.26.97-2.05.33-4.07.68-6.05,1.03-1.98.35-3.93.71-5.85,1.08s-3.8.75-5.65,1.14c-1.85.39-3.67.78-5.46,1.19s-3.54.81-5.27,1.23c-1.73.42-3.42.84-5.08,1.28-1.66.43-3.3.87-4.9,1.32-1.61.45-3.18.9-4.73,1.36-1.55.46-3.06.92-4.55,1.39-1.49.47-2.95.95-4.38,1.43-1.43.48-2.84.97-4.22,1.46-1.38.49-2.73.99-4.05,1.49-1.32.5-2.62,1.01-3.9,1.52-1.27.51-2.52,1.02-3.74,1.54-1.22.52-2.42,1.04-3.58,1.57-1.17.53-2.31,1.06-3.43,1.59-1.12.53-2.22,1.07-3.29,1.61-1.07.54-2.12,1.08-3.14,1.63s-2.02,1.09-3,1.65c-.98.55-1.93,1.11-2.86,1.66s-1.84,1.12-2.72,1.68c-.88.56-1.74,1.13-2.58,1.69-.84.57-1.66,1.13-2.45,1.7-.79.57-1.57,1.14-2.32,1.72s-1.48,1.15-2.19,1.73c-.71.58-1.4,1.16-2.06,1.74-.67.58-1.31,1.17-1.94,1.75-.63.59-1.23,1.17-1.82,1.77-.59.59-1.15,1.18-1.7,1.78-.55.59-1.07,1.19-1.58,1.78-.51.6-.99,1.19-1.46,1.79-.47.6-.91,1.2-1.34,1.8-.43.6-.84,1.2-1.23,1.81-.39.6-.76,1.21-1.11,1.81-.35.61-.68,1.21-1,1.82-.31.61-.61,1.22-.88,1.83s-.53,1.22-.77,1.83c-.24.61-.46,1.22-.66,1.83s-.38,1.22-.55,1.84-.31,1.23-.44,1.84c-.13.61-.24,1.23-.33,1.84-.09.61-.16,1.23-.22,1.84-.05.61-.09,1.23-.11,1.84-.02.61-.02,1.23,0,1.84.02.61.05,1.23.11,1.84.05.61.13,1.23.22,1.84.09.61.2,1.23.33,1.84.13.61.27,1.23.44,1.84s.35,1.23.55,1.84.42,1.22.66,1.83c.24.61.5,1.22.77,1.83s.57,1.22.88,1.83c.31.61.65,1.21,1,1.82s.72,1.21,1.11,1.81c.39.6.8,1.21,1.23,1.81s.88,1.2,1.34,1.8.95,1.2,1.46,1.79c.51.6,1.03,1.19,1.58,1.78s1.11,1.19,1.7,1.78c.59.59,1.19,1.18,1.82,1.77.63.59,1.27,1.17,1.94,1.75.67.58,1.36,1.16,2.06,1.74s1.44,1.16,2.19,1.73c.75.57,1.52,1.15,2.32,1.72.79.57,1.61,1.14,2.45,1.7s1.7,1.12,2.58,1.68c.88.56,1.79,1.11,2.72,1.66s1.88,1.1,2.86,1.64c.98.54,1.97,1.08,3,1.61,1.02.53,2.07,1.06,3.14,1.59,1.07.53,2.17,1.05,3.29,1.57,1.12.52,2.26,1.03,3.43,1.54,1.17.51,2.36,1.01,3.58,1.51,1.22.5,2.47.99,3.74,1.48,1.27.49,2.57.97,3.9,1.45,1.32.48,2.68.95,4.05,1.42,1.38.47,2.78.93,4.22,1.39,1.43.46,2.89.91,4.38,1.35,1.49.45,3.01.88,4.55,1.32,1.55.43,3.12.86,4.73,1.28,1.6.42,3.24.83,4.9,1.24s3.36.8,5.08,1.2c1.73.39,3.48.78,5.27,1.15s3.61.74,5.46,1.1c1.85.36,3.73.71,5.65,1.06,1.92.34,3.87.68,5.85,1,1.98.33,4,.64,6.05.95,2.05.31,4.14.6,6.26.89,2.12.29,4.28.57,6.47.83,2.19.27,4.42.52,6.68.77,2.26.25,4.57.48,6.9.7s4.72.44,7.13.64c2.42.2,4.87.39,7.36.56s5.03.34,7.6.49,5.19.29,7.84.41c2.65.12,5.35.23,8.09.32,2.74.09,5.52.17,8.34.24,2.82.06,5.69.11,8.6.15,2.91.03,5.87.05,8.87.05h-18.36c-3,0-5.96-.02-8.87-.05-2.91-.03-5.78-.08-8.6-.15-2.82-.06-5.6-.14-8.34-.24s-5.43-.2-8.09-.32c-2.65-.12-5.27-.26-7.84-.41s-5.11-.31-7.6-.49c-2.49-.18-4.95-.36-7.36-.56-2.42-.2-4.79-.41-7.13-.64s-4.64-.46-6.9-.7c-2.26-.25-4.49-.5-6.68-.77-2.19-.27-4.35-.55-6.47-.83-2.12-.29-4.21-.59-6.26-.89-2.05-.31-4.07-.62-6.05-.95-1.98-.33-3.93-.66-5.85-1-1.92-.34-3.8-.7-5.65-1.06-1.85-.36-3.67-.73-5.46-1.1s-3.54-.76-5.27-1.15c-1.73-.39-3.42-.79-5.08-1.2s-3.3-.82-4.9-1.24c-1.61-.42-3.18-.85-4.73-1.28-1.55-.43-3.06-.87-4.55-1.32s-2.95-.9-4.38-1.35c-1.43-.46-2.84-.92-4.22-1.39-1.38-.47-2.73-.94-4.05-1.42-1.32-.48-2.62-.96-3.9-1.45s-2.52-.98-3.74-1.48c-1.22-.5-2.42-1-3.58-1.51-1.17-.51-2.31-1.02-3.43-1.54-1.12-.52-2.22-1.04-3.29-1.57-1.07-.53-2.12-1.06-3.14-1.59-1.02-.53-2.02-1.07-3-1.61-.98-.54-1.93-1.09-2.86-1.64-.93-.55-1.84-1.1-2.72-1.66-.88-.56-1.74-1.12-2.58-1.68s-1.66-1.13-2.45-1.7c-.79-.57-1.57-1.14-2.32-1.72-.75-.57-1.48-1.15-2.19-1.73-.71-.58-1.4-1.16-2.06-1.74s-1.31-1.17-1.94-1.75c-.63-.59-1.23-1.18-1.82-1.77s-1.15-1.18-1.7-1.78-1.07-1.19-1.58-1.78c-.51-.6-.99-1.19-1.46-1.79-.47-.6-.91-1.2-1.34-1.8-.43-.6-.84-1.2-1.23-1.81-.39-.6-.76-1.21-1.11-1.81-.35-.61-.68-1.21-1-1.82-.31-.61-.61-1.22-.88-1.83-.28-.61-.53-1.22-.77-1.83-.24-.61-.46-1.22-.66-1.83-.2-.61-.38-1.22-.55-1.84-.16-.61-.31-1.23-.44-1.84-.13-.61-.24-1.23-.33-1.84-.09-.61-.16-1.23-.22-1.84s-.09-1.23-.11-1.84c-.02-.61-.02-1.23,0-1.84.02-.61.05-1.23.11-1.84.05-.61.13-1.23.22-1.84.09-.61.2-1.23.33-1.84s.27-1.23.44-1.84c.16-.61.35-1.23.55-1.84.2-.61.42-1.22.66-1.83.24-.61.5-1.22.77-1.83s.57-1.22.88-1.83.65-1.21,1-1.82c.35-.61.72-1.21,1.11-1.81s.8-1.21,1.23-1.81.87-1.2,1.34-1.8c.47-.6.95-1.2,1.46-1.79.51-.6,1.03-1.19,1.58-1.78s1.11-1.19,1.7-1.78c.59-.59,1.19-1.18,1.82-1.77.63-.59,1.27-1.17,1.94-1.75s1.36-1.16,2.06-1.74,1.44-1.16,2.19-1.73,1.52-1.15,2.32-1.72c.79-.57,1.61-1.14,2.45-1.7s1.7-1.13,2.58-1.69c.88-.56,1.79-1.12,2.72-1.68.93-.56,1.88-1.11,2.86-1.66.98-.55,1.97-1.1,3-1.65,1.02-.55,2.07-1.09,3.14-1.63s2.17-1.08,3.29-1.61c1.12-.53,2.26-1.06,3.43-1.59,1.17-.53,2.36-1.05,3.58-1.57,1.22-.52,2.47-1.03,3.74-1.54,1.27-.51,2.57-1.01,3.9-1.52,1.32-.5,2.68-1,4.05-1.49,1.38-.49,2.78-.98,4.22-1.46,1.43-.48,2.89-.96,4.38-1.43,1.49-.47,3.01-.93,4.55-1.39,1.55-.46,3.12-.91,4.73-1.36,1.6-.45,3.24-.88,4.9-1.32,1.66-.43,3.36-.86,5.08-1.28,1.73-.42,3.48-.83,5.27-1.23,1.79-.4,3.61-.8,5.46-1.18s3.73-.77,5.65-1.14,3.87-.73,5.85-1.08c1.98-.35,4-.69,6.05-1.03,2.05-.33,4.14-.66,6.26-.97,2.12-.31,4.28-.61,6.47-.91s4.42-.57,6.68-.84c2.26-.27,4.57-.53,6.9-.77,2.34-.24,4.72-.48,7.13-.7s4.87-.43,7.36-.62c2.49-.19,5.03-.37,7.6-.54s5.19-.32,7.84-.45,5.35-.26,8.09-.36,5.52-.19,8.34-.26c2.82-.07,5.69-.13,8.6-.16S260.83,0,263.83,0h4.93c1.49,0,2.87,0,4.25,0s2.75,0,4.25,0c1.49,0,3.1,0,4.93,0Z"/>
        <path class="cls-4" d="M253.82,0c-3,0-5.96.02-8.87.06s-5.78.09-8.6.16c-2.82.07-5.6.16-8.34.26-2.74.1-5.43.22-8.09.36-2.65.14-5.27.29-7.84.45-2.57.16-5.11.34-7.6.54s-4.95.4-7.36.62c-2.42.22-4.79.45-7.13.7s-4.64.5-6.9.77c-2.26.27-4.49.55-6.68.84s-4.35.59-6.47.91c-2.12.31-4.21.64-6.26.97-2.05.33-4.07.68-6.05,1.03-1.98.35-3.93.71-5.85,1.08-1.92.37-3.8.75-5.65,1.14-1.85.39-3.67.78-5.46,1.19s-3.54.81-5.27,1.23-3.42.84-5.08,1.28c-1.66.43-3.3.87-4.9,1.32-1.6.45-3.18.9-4.73,1.36-1.55.46-3.06.92-4.55,1.39-1.49.47-2.95.95-4.38,1.43-1.43.48-2.84.97-4.22,1.46-1.38.49-2.73.99-4.05,1.49-1.32.5-2.62,1.01-3.9,1.52-1.27.51-2.52,1.02-3.74,1.54-1.22.52-2.42,1.04-3.58,1.57s-2.31,1.06-3.43,1.59c-1.12.53-2.22,1.07-3.29,1.61-1.07.54-2.12,1.08-3.14,1.63s-2.02,1.09-3,1.65c-.98.55-1.93,1.11-2.86,1.66s-1.84,1.12-2.72,1.68c-.88.56-1.74,1.13-2.58,1.69-.84.57-1.66,1.13-2.45,1.7-.79.57-1.57,1.14-2.32,1.72s-1.48,1.15-2.19,1.73c-.71.58-1.4,1.16-2.06,1.74-.67.58-1.31,1.17-1.94,1.75-.63.59-1.23,1.17-1.82,1.77-.59.59-1.15,1.18-1.7,1.78-.55.59-1.07,1.19-1.58,1.78-.51.6-.99,1.19-1.46,1.79-.47.6-.91,1.2-1.34,1.8-.43.6-.84,1.2-1.23,1.81-.39.6-.76,1.21-1.11,1.81-.35.61-.68,1.21-1,1.82-.31.61-.61,1.22-.88,1.83s-.53,1.22-.77,1.83c-.24.61-.46,1.22-.66,1.83s-.38,1.22-.55,1.84-.31,1.23-.44,1.84c-.13.61-.24,1.23-.33,1.84-.09.61-.16,1.23-.22,1.84-.05.61-.09,1.23-.11,1.84-.02.61-.02,1.23,0,1.84.02.61.05,1.23.11,1.84.05.61.13,1.23.22,1.84.09.61.2,1.23.33,1.84.13.61.27,1.23.44,1.84s.35,1.23.55,1.84.42,1.22.66,1.83.5,1.22.77,1.83c.28.61.57,1.22.88,1.83s.65,1.21,1,1.82.72,1.21,1.11,1.81c.39.6.8,1.21,1.23,1.81.43.6.88,1.2,1.34,1.8.47.6.95,1.2,1.46,1.79.51.6,1.03,1.19,1.58,1.78.55.59,1.11,1.19,1.7,1.78.59.59,1.19,1.18,1.82,1.77.63.59,1.27,1.17,1.94,1.75.67.58,1.36,1.16,2.06,1.74s1.44,1.16,2.19,1.73c.75.57,1.52,1.15,2.32,1.72.79.57,1.61,1.14,2.45,1.7s1.7,1.12,2.58,1.68c.88.56,1.79,1.11,2.72,1.66s1.88,1.1,2.86,1.64c.98.54,1.97,1.08,3,1.61,1.02.53,2.07,1.06,3.14,1.59,1.07.53,2.17,1.05,3.29,1.57,1.12.52,2.26,1.03,3.43,1.54s2.36,1.01,3.58,1.51c1.22.5,2.47.99,3.74,1.48,1.27.49,2.57.97,3.9,1.45,1.32.48,2.68.95,4.05,1.42,1.38.47,2.78.93,4.22,1.39s2.89.91,4.38,1.35c1.49.45,3.01.88,4.55,1.32,1.55.43,3.12.86,4.73,1.28,1.61.42,3.24.83,4.9,1.24s3.36.8,5.08,1.2c1.73.39,3.48.78,5.27,1.15s3.61.74,5.46,1.1c1.85.36,3.73.71,5.65,1.06s3.87.68,5.85,1c1.98.33,4,.64,6.05.95,2.05.31,4.14.6,6.26.89,2.12.29,4.28.57,6.47.83,2.19.27,4.42.52,6.68.77,2.26.25,4.57.48,6.9.7s4.72.44,7.13.64c2.42.2,4.87.39,7.36.56s5.03.34,7.6.49c2.57.15,5.19.29,7.84.41,2.65.12,5.35.23,8.09.32,2.74.09,5.52.17,8.34.24,2.82.06,5.69.11,8.6.15,2.91.03,5.87.05,8.87.05h-18.36c-3,0-5.96-.02-8.87-.05-2.91-.03-5.78-.08-8.6-.15-2.82-.06-5.6-.14-8.34-.24-2.74-.09-5.43-.2-8.09-.32-2.65-.12-5.27-.26-7.84-.41s-5.11-.31-7.6-.49-4.95-.36-7.36-.56c-2.42-.2-4.79-.41-7.13-.64s-4.64-.46-6.9-.7c-2.26-.25-4.49-.5-6.68-.77-2.19-.27-4.35-.55-6.47-.83-2.12-.29-4.21-.59-6.26-.89-2.05-.31-4.07-.62-6.05-.95-1.98-.33-3.93-.66-5.85-1s-3.8-.7-5.65-1.06c-1.85-.36-3.67-.73-5.46-1.1s-3.54-.76-5.27-1.15c-1.73-.39-3.42-.79-5.08-1.2-1.66-.41-3.3-.82-4.9-1.24-1.6-.42-3.18-.85-4.73-1.28-1.55-.43-3.06-.87-4.55-1.32s-2.95-.9-4.38-1.35c-1.43-.46-2.84-.92-4.22-1.39-1.38-.47-2.73-.94-4.05-1.42-1.32-.48-2.62-.96-3.9-1.45-1.27-.49-2.52-.98-3.74-1.48-1.22-.5-2.42-1-3.58-1.51-1.17-.51-2.31-1.02-3.43-1.54-1.12-.52-2.22-1.04-3.29-1.57-1.07-.53-2.12-1.06-3.14-1.59-1.02-.53-2.02-1.07-3-1.61-.98-.54-1.93-1.09-2.86-1.64s-1.84-1.1-2.72-1.66c-.88-.56-1.74-1.12-2.58-1.68s-1.66-1.13-2.45-1.7c-.79-.57-1.57-1.14-2.32-1.72-.75-.57-1.48-1.15-2.19-1.73s-1.4-1.16-2.06-1.74-1.31-1.17-1.94-1.75c-.63-.59-1.23-1.17-1.82-1.77s-1.15-1.18-1.7-1.78-1.07-1.19-1.58-1.78c-.51-.6-.99-1.19-1.46-1.79-.47-.6-.91-1.2-1.34-1.8-.43-.6-.84-1.2-1.23-1.81-.39-.6-.76-1.21-1.11-1.81-.35-.61-.68-1.21-1-1.82-.31-.61-.61-1.22-.88-1.83-.28-.61-.53-1.22-.77-1.83-.24-.61-.46-1.22-.66-1.83-.2-.61-.38-1.22-.55-1.84-.16-.61-.31-1.23-.44-1.84-.13-.61-.24-1.23-.33-1.84-.09-.61-.16-1.23-.22-1.84s-.09-1.23-.11-1.84c-.02-.61-.02-1.23,0-1.84.02-.61.05-1.23.11-1.84s.13-1.23.22-1.84c.09-.61.2-1.23.33-1.84.13-.61.27-1.23.44-1.84.16-.61.35-1.23.55-1.84.2-.61.42-1.22.66-1.83.24-.61.5-1.22.77-1.83s.57-1.22.88-1.83c.31-.61.65-1.21,1-1.82.35-.61.72-1.21,1.11-1.81s.8-1.21,1.23-1.81.87-1.2,1.34-1.8c.47-.6.95-1.2,1.46-1.79.51-.6,1.03-1.19,1.58-1.78.55-.59,1.11-1.19,1.7-1.78.59-.59,1.19-1.18,1.82-1.77.63-.59,1.27-1.17,1.94-1.75.67-.58,1.36-1.16,2.06-1.74.71-.58,1.44-1.16,2.19-1.73.75-.57,1.52-1.15,2.32-1.72.79-.57,1.61-1.14,2.45-1.7s1.7-1.13,2.58-1.69c.88-.56,1.79-1.12,2.72-1.68.93-.56,1.88-1.11,2.86-1.66.98-.55,1.97-1.1,3-1.65,1.02-.55,2.07-1.09,3.14-1.63s2.17-1.08,3.29-1.61c1.12-.53,2.26-1.06,3.43-1.59,1.17-.53,2.36-1.05,3.59-1.57,1.22-.52,2.47-1.03,3.74-1.54s2.57-1.01,3.9-1.52c1.32-.5,2.68-1,4.05-1.49,1.38-.49,2.78-.98,4.22-1.46,1.43-.48,2.89-.96,4.38-1.43,1.49-.47,3.01-.93,4.55-1.39,1.55-.46,3.12-.91,4.73-1.36,1.6-.45,3.24-.88,4.9-1.32,1.66-.43,3.36-.86,5.08-1.28s3.48-.83,5.27-1.23,3.61-.8,5.46-1.18c1.85-.39,3.73-.77,5.65-1.14,1.92-.37,3.87-.73,5.85-1.08s4-.69,6.05-1.03c2.05-.33,4.14-.66,6.26-.97,2.12-.31,4.28-.61,6.47-.91s4.42-.57,6.68-.84c2.26-.27,4.57-.53,6.9-.77,2.34-.24,4.72-.48,7.13-.7,2.42-.22,4.87-.43,7.36-.62s5.03-.37,7.6-.54,5.19-.32,7.84-.45,5.35-.26,8.09-.36c2.74-.1,5.52-.19,8.34-.26,2.82-.07,5.69-.13,8.6-.16C229.5.02,232.46,0,235.46,0c1.84,0,3.44,0,4.93,0,1.49,0,2.87,0,4.25,0,1.38,0,2.75,0,4.25,0C250.37,0,251.98,0,253.82,0Z"/>
        <path class="cls-1" d="M310.56,0c-3,0-5.96.02-8.87.06-2.91.04-5.78.09-8.6.16-2.82.07-5.6.16-8.34.26-2.74.1-5.43.22-8.09.36-2.65.14-5.27.29-7.84.45-2.57.16-5.11.34-7.6.54-2.49.19-4.95.4-7.36.62-2.42.22-4.79.45-7.13.7-2.34.24-4.64.5-6.9.77-2.26.27-4.49.55-6.68.84-2.19.29-4.35.59-6.47.91-2.12.31-4.21.64-6.26.97-2.05.33-4.07.68-6.05,1.03-1.98.35-3.93.71-5.85,1.08s-3.8.75-5.65,1.14c-1.85.39-3.67.78-5.46,1.19s-3.54.81-5.27,1.23c-1.73.42-3.42.84-5.08,1.28-1.66.43-3.3.87-4.9,1.32s-3.18.9-4.73,1.36c-1.55.46-3.06.92-4.55,1.39-1.49.47-2.95.95-4.38,1.43-1.43.48-2.84.97-4.22,1.46-1.38.49-2.73.99-4.05,1.49-1.32.5-2.62,1.01-3.9,1.52s-2.52,1.02-3.74,1.54c-1.22.52-2.42,1.04-3.58,1.57s-2.31,1.06-3.43,1.59c-1.12.53-2.22,1.07-3.29,1.61-1.07.54-2.12,1.08-3.14,1.63-1.02.55-2.02,1.09-3,1.65-.98.55-1.93,1.11-2.86,1.66-.93.56-1.84,1.12-2.72,1.68-.88.56-1.74,1.13-2.58,1.69-.84.57-1.66,1.13-2.45,1.7-.79.57-1.57,1.14-2.32,1.72-.75.57-1.48,1.15-2.19,1.73-.71.58-1.4,1.16-2.06,1.74-.67.58-1.31,1.17-1.94,1.75-.63.59-1.23,1.17-1.82,1.77-.59.59-1.15,1.18-1.7,1.78-.55.59-1.07,1.19-1.58,1.78-.51.6-.99,1.19-1.46,1.79-.47.6-.91,1.2-1.34,1.8-.43.6-.84,1.2-1.23,1.81-.39.6-.76,1.21-1.11,1.81-.35.61-.68,1.21-1,1.82s-.61,1.22-.88,1.83-.53,1.22-.77,1.83c-.24.61-.46,1.22-.66,1.83-.2.61-.38,1.22-.55,1.84-.16.61-.31,1.23-.44,1.84s-.24,1.23-.33,1.84c-.09.61-.16,1.23-.22,1.84-.05.61-.09,1.23-.11,1.84-.02.61-.02,1.23,0,1.84.02.61.05,1.23.11,1.84s.13,1.23.22,1.84c.09.61.2,1.23.33,1.84s.27,1.23.44,1.84c.16.61.35,1.23.55,1.84.2.61.42,1.22.66,1.83.24.61.5,1.22.77,1.83s.57,1.22.88,1.83c.31.61.65,1.21,1,1.82.35.61.72,1.21,1.11,1.81s.8,1.21,1.23,1.81c.43.6.88,1.2,1.34,1.8.47.6.95,1.2,1.46,1.79.51.6,1.03,1.19,1.58,1.78.55.59,1.11,1.19,1.7,1.78.59.59,1.19,1.18,1.82,1.77.63.59,1.27,1.17,1.94,1.75s1.36,1.16,2.06,1.74,1.44,1.16,2.19,1.73,1.52,1.15,2.32,1.72c.79.57,1.61,1.14,2.45,1.7s1.7,1.12,2.58,1.68c.88.56,1.79,1.11,2.72,1.66.93.55,1.88,1.1,2.86,1.64.98.54,1.97,1.08,3,1.61,1.02.53,2.07,1.06,3.14,1.59,1.07.53,2.17,1.05,3.29,1.57,1.12.52,2.26,1.03,3.43,1.54,1.17.51,2.36,1.01,3.58,1.51,1.22.5,2.47.99,3.74,1.48s2.57.97,3.9,1.45,2.68.95,4.05,1.42c1.38.47,2.78.93,4.22,1.39,1.43.46,2.89.91,4.38,1.35,1.49.45,3.01.88,4.55,1.32,1.55.43,3.12.86,4.73,1.28,1.6.42,3.24.83,4.9,1.24s3.36.8,5.08,1.2c1.73.39,3.48.78,5.27,1.15s3.61.74,5.46,1.1c1.85.36,3.73.71,5.65,1.06s3.87.68,5.85,1c1.98.33,4,.64,6.05.95,2.05.31,4.14.6,6.26.89,2.12.29,4.28.57,6.47.83,2.19.27,4.42.52,6.68.77,2.26.25,4.57.48,6.9.7s4.72.44,7.13.64c2.42.2,4.87.39,7.36.56s5.03.34,7.6.49,5.19.29,7.84.41c2.65.12,5.35.23,8.09.32,2.74.09,5.52.17,8.34.24,2.82.06,5.69.11,8.6.15,2.91.03,5.87.05,8.87.05h-18.36c-3,0-5.96-.02-8.87-.05-2.91-.03-5.78-.08-8.6-.15-2.82-.06-5.6-.14-8.34-.24-2.74-.09-5.43-.2-8.09-.32-2.65-.12-5.27-.26-7.84-.41s-5.11-.31-7.6-.49-4.95-.36-7.36-.56c-2.42-.2-4.79-.41-7.13-.64s-4.64-.46-6.9-.7c-2.26-.25-4.49-.5-6.68-.77-2.19-.27-4.35-.55-6.47-.83-2.12-.29-4.21-.59-6.26-.89-2.05-.31-4.07-.62-6.05-.95-1.98-.33-3.93-.66-5.85-1-1.92-.34-3.8-.7-5.65-1.06-1.85-.36-3.67-.73-5.46-1.1s-3.54-.76-5.27-1.15c-1.73-.39-3.42-.79-5.08-1.2-1.66-.41-3.3-.82-4.9-1.24-1.6-.42-3.18-.85-4.73-1.28-1.55-.43-3.06-.87-4.55-1.32s-2.95-.9-4.38-1.35c-1.43-.46-2.84-.92-4.22-1.39s-2.73-.94-4.05-1.42-2.62-.96-3.9-1.45-2.52-.98-3.74-1.48c-1.22-.5-2.42-1-3.58-1.51-1.17-.51-2.31-1.02-3.43-1.54-1.12-.52-2.22-1.04-3.29-1.57-1.07-.53-2.12-1.06-3.14-1.59-1.02-.53-2.02-1.07-3-1.61-.98-.54-1.93-1.09-2.86-1.64-.93-.55-1.84-1.1-2.72-1.66-.88-.56-1.74-1.12-2.58-1.68s-1.66-1.13-2.45-1.7c-.79-.57-1.57-1.14-2.32-1.72-.75-.57-1.48-1.15-2.19-1.73s-1.4-1.16-2.06-1.74-1.31-1.17-1.94-1.75-1.23-1.18-1.82-1.77-1.15-1.18-1.7-1.78c-.55-.59-1.07-1.19-1.58-1.78-.51-.6-.99-1.19-1.46-1.79-.47-.6-.91-1.2-1.34-1.8-.43-.6-.84-1.2-1.23-1.81s-.76-1.21-1.11-1.81c-.35-.61-.68-1.21-1-1.82-.31-.61-.61-1.22-.88-1.83s-.53-1.22-.77-1.83-.46-1.22-.66-1.83c-.2-.61-.38-1.22-.55-1.84-.16-.61-.31-1.23-.44-1.84s-.24-1.23-.33-1.84c-.09-.61-.16-1.23-.22-1.84-.05-.61-.09-1.23-.11-1.84-.02-.61-.02-1.23,0-1.84.02-.61.05-1.23.11-1.84.05-.61.13-1.23.22-1.84.09-.61.2-1.23.33-1.84s.27-1.23.44-1.84c.16-.61.35-1.23.55-1.84.2-.61.42-1.22.66-1.83.24-.61.5-1.22.77-1.83.28-.61.57-1.22.88-1.83.31-.61.65-1.21,1-1.82.35-.61.72-1.21,1.11-1.81.39-.6.8-1.21,1.23-1.81.43-.6.88-1.2,1.34-1.8.47-.6.95-1.2,1.46-1.79.51-.6,1.03-1.19,1.58-1.78s1.11-1.19,1.7-1.78c.59-.59,1.19-1.18,1.82-1.77s1.27-1.17,1.94-1.75,1.36-1.16,2.06-1.74c.71-.58,1.44-1.16,2.19-1.73.75-.57,1.52-1.15,2.32-1.72.79-.57,1.61-1.14,2.45-1.7.84-.57,1.7-1.13,2.58-1.69.88-.56,1.79-1.12,2.72-1.68.93-.56,1.88-1.11,2.86-1.66.98-.55,1.97-1.1,3-1.65,1.02-.55,2.07-1.09,3.14-1.63s2.17-1.08,3.29-1.61c1.12-.53,2.26-1.06,3.43-1.59,1.17-.53,2.36-1.05,3.58-1.57,1.22-.52,2.47-1.03,3.74-1.54,1.27-.51,2.57-1.01,3.9-1.52,1.32-.5,2.68-1,4.05-1.49,1.38-.49,2.78-.98,4.22-1.46,1.43-.48,2.89-.96,4.38-1.43,1.49-.47,3.01-.93,4.55-1.39,1.55-.46,3.12-.91,4.73-1.36,1.61-.45,3.24-.88,4.9-1.32,1.66-.43,3.36-.86,5.08-1.28,1.73-.42,3.48-.83,5.27-1.23s3.61-.8,5.46-1.18c1.85-.39,3.73-.77,5.65-1.14s3.87-.73,5.85-1.08c1.98-.35,4-.69,6.05-1.03,2.05-.33,4.14-.66,6.26-.97,2.12-.31,4.28-.61,6.47-.91s4.42-.57,6.68-.84c2.26-.27,4.57-.53,6.9-.77s4.72-.48,7.13-.7,4.87-.43,7.36-.62,5.03-.37,7.6-.54,5.19-.32,7.84-.45,5.35-.26,8.09-.36c2.74-.1,5.52-.19,8.34-.26,2.82-.07,5.69-.13,8.6-.16,2.91-.04,5.87-.06,8.87-.06,1.84,0,3.44,0,4.93,0s2.87,0,4.25,0c1.38,0,2.75,0,4.25,0,1.49,0,3.1,0,4.93,0Z"/>
      </g>
    </g>
  </g>
</svg>