<?xml version="1.0" encoding="UTF-8"?>
<svg id="Layer_2" data-name="Layer 2" xmlns="http://www.w3.org/2000/svg" viewBox="0 0 358.01 50.91">
  <defs>
    <style>
      .cls-1 {
        fill: blue;
      }

      .cls-2 {
        fill: #002251;
      }
    </style>
  </defs>
  <g id="Layer_1-2" data-name="Layer 1">
    <g>
      <path class="cls-2" d="M36.36,36.36c-1.44,3.1-3.17,7.7-4.97,10.44-1.3,2.02-3.31,3.46-5.69,3.46-1.15,0-2.02-1.08-2.45-2.38-.79-2.66-1.87-10.87-4.32-19.44-.36-1.37-.65-2.09-1.01-2.09-.29,0-.58.36-.72,1.01-.07.36-1.08,6.05-1.08,11.3,0,1.94.43,3.1.72,3.82.86,1.94,2.16,2.3,2.16,4.39,0,1.8-.86,3.24-3.38,3.24-3.1,0-4.39-.22-6.05-.22-2.02,0-4.1.22-7.06.22-1.8,0-2.52-.94-2.52-2.23,0-4.03,3.74-2.38,5.9-10.15,1.58-5.69,2.88-11.52,3.67-17.35.29-2.23.72-5.83.72-7.42,0-5.9-2.66-6.26-2.66-9,0-1.8.86-3.24,3.38-3.24,1.66,0,5.25.22,7.42.22,5.25,0,6.19.29,7.63,1.3s2.74,3.53,3.38,5.11c1.08,2.59,2.09,8.93,3.82,15.19.14.5.29.86.65.86.22,0,.5-.14.86-.79,1.08-2.02,6.19-12.6,7.85-15.48,1.44-2.59,2.88-4.1,4.39-4.97,1.66-.94,4.46-1.22,9.07-1.22,1.44,0,3.67-.22,5.26-.22,1.94,0,2.66.94,2.66,2.23,0,3.96-3.82,3.1-5.54,10.87-.43,1.87-.86,4.75-1.15,6.55-.86,5.98-1.22,11.88-1.22,17.35,0,6.77,3.24,6.34,3.24,9.21,0,1.73-.79,3.17-3.31,3.17-2.88,0-6.7-.22-8.71-.22-3.1,0-5.98.22-8.93.22-1.94,0-2.95-.86-2.95-2.23,0-2.81,2.52-3.31,3.96-5.47.43-.65,1.01-1.58,1.51-3.31.65-2.23,1.44-10.01,1.44-12.31,0-.72-.29-.86-.36-.86-.86,0-2.52,3.67-5.62,10.44Z"/>
      <path class="cls-2" d="M70.42,12.89c0-5.9-2.74-6.26-2.74-8.93,0-1.8.86-3.24,3.38-3.24,3.1,0,6.05.22,9.07.22s7.56-.22,10.44-.22c1.87,0,2.59.94,2.59,2.3,0,3.82-5.11,2.95-6.98,10.73-.86,3.53-3.46,21.09-3.46,23.25,0,3.82,1.37,4.61,3.46,4.61,5.54,0,8.64-4.39,10.73-7.85,1.15-1.87,2.23-3.31,3.67-3.31,1.15,0,1.87.86,1.87,2.66,0,1.94-1.37,6.84-2.81,13.53-.65,2.88-1.3,3.46-4.46,3.46-3.74,0-11.09-.22-14.18-.22-2.16,0-9.29.22-16.85.22-2.02,0-3.02-.86-3.02-2.23,0-3.24,3.53-2.95,5.33-8.64,1.22-3.82,3.96-22.46,3.96-26.35Z"/>
      <path class="cls-2" d="M118.73,15.41c1.44-3.1,2.59-6.41,3.31-8.71,1.15-3.53,9.14-6.7,11.95-6.7,3.24,0,3.46,3.1,4.61,7.77l7.56,30.74c.29,1.37.86,3.24,2.45,5.33.58.79,1.73,1.94,1.73,3.31,0,2.38-1.8,3.24-5.61,3.24-2.23,0-4.39-.22-8.5-.22s-6.55.22-9.14.22c-2.38,0-3.46-.94-3.46-2.45,0-2.88,5.54-3.89,5.54-8.42,0-.43-.14-.86-.36-1.15-.36-.43-1.01-.65-2.02-.65h-7.27c-.86,0-1.73.36-2.16.79-.43.43-1.22,1.22-1.22,2.88,0,3.02,3.1,4.18,3.1,6.26,0,1.37-.86,2.74-3.96,2.74-1.87,0-4.1-.22-6.19-.22-1.94,0-3.31.22-5.18.22-1.66,0-2.59-.79-2.59-2.23,0-3.1,3.02-2.16,6.77-10.08l10.65-22.68ZM126.07,28.72c1.01,0,1.15-.36,1.15-.94,0-1.44-.79-6.77-1.58-7.99-.14-.22-.22-.36-.36-.36s-.29.14-.43.36c-1.15,1.51-3.74,7.56-3.74,8.35,0,.36.22.58.94.58h4.03Z"/>
      <path class="cls-1" d="M152.51,33.45c0-10.5,7.38-25.38,22.86-25.38,4.08,0,5.4,1.02,7.14,1.02,1.44,0,2.46-.72,3.96-.72,2.22,0,2.4,1.65,2.4,3.99,0,2.55.36,8.61.36,8.79,0,1.92-1.14,2.82-2.28,2.82-1.92,0-2.58-2.28-3.84-4.56-2.04-3.72-4.56-5.4-6.9-5.4-5.76,0-9.24,8.4-9.24,15.12s2.28,12.72,6.36,12.72c.36,0,1.14-.24,1.5-.78.48-.72.84-2.82.84-4.86,0-2.82-.78-3.66-1.74-4.8-.84-.96-1.56-1.26-1.56-2.52,0-1.68,1.02-2.76,3.36-2.76,1.98,0,4.02.18,5.76.18,2.4,0,5.22-.18,7.86-.18,1.38,0,1.92.78,1.92,1.8,0,3.36-2.04,2.16-3.24,10.56-.54,4.02-.3,6.36-.6,8.7-.24,1.8-1.02,2.82-2.7,2.82-.84,0-1.56-.36-2.34-.78-.72-.36-1.44-.78-2.04-.78-1.2,0-2.4.36-3.84.84-2.1.72-4.62,1.62-8.16,1.62-10.02,0-15.84-7.68-15.84-17.46Z"/>
      <path class="cls-1" d="M229.07,39.21c1.26,0,1.86-2.04,3.06-2.04.66,0,1.2.84,1.2,2.22,0,3.84-3,11.28-10.8,11.28-9.18,0-8.7-10.5-10.26-14.88-.3-.9-.66-1.8-1.44-1.8-.48,0-.96.48-1.26,1.14-.36.84-.6,2.22-.6,3.48,0,3.12.48,4.38,1.5,5.88.9,1.38,1.74,1.86,1.74,3.18,0,1.68-1.44,2.4-3,2.4-2.46,0-5.82-.18-8.28-.18s-5.7.18-7.56.18c-1.68,0-2.52-.72-2.52-1.86,0-2.7,2.88-2.46,4.44-7.2,1.02-3.18,3.3-18.72,3.3-21.96,0-4.92-2.28-5.22-2.28-7.44,0-1.5.72-2.7,2.82-2.7,2.28,0,5.28.18,8.16.18,3.24,0,7.68-.3,10.8-.3,6.6,0,12.48,2.04,12.48,8.76,0,4.38-2.64,8.58-9.06,11.28-.12.06-.42.24-.42.48,0,.12.06.36.24.42,6.42,1.8,5.22,9.48,7.74,9.48ZM213.23,15.81c-.48,0-.9.24-1.32,1.86-.48,2.22-.96,5.4-.96,6.96,0,1.2.3,2.1,1.38,2.1,1.5,0,3.36-2.76,3.36-6.66,0-3.24-1.38-4.26-2.46-4.26Z"/>
      <path class="cls-1" d="M256.37,8.07c9.6,0,17.58,6.66,17.58,18.78,0,15.84-9.96,24.06-22.14,24.06-11.4,0-18.06-7.38-18.06-17.82,0-14.4,9.18-25.02,22.62-25.02ZM249.59,34.59c0,5.7,1.08,8.58,3.18,8.58,3.48,0,6.06-9.48,6.06-18.84,0-5.94-.96-9.36-3-9.36-3.3,0-6.24,10.14-6.24,19.62Z"/>
      <path class="cls-1" d="M310.31,33.21c-1.62,11.4-6.3,17.7-18.84,17.7-7.92,0-13.74-3.84-13.74-14.22,0-3.12,2.1-14.94,2.1-17.64,0-4.92-2.34-5.22-2.34-7.44,0-1.5.72-2.7,2.82-2.7,2.58,0,5.1.18,7.56.18,2.58,0,5.1-.18,7.5-.18,1.56,0,2.22.78,2.22,1.92,0,3.18-3.18,2.88-4.56,8.94-.6,2.76-2.16,11.16-2.16,14.46,0,4.38,1.5,6.9,5.04,6.9,2.28,0,3.84-1.14,4.92-3,1.02-1.8,1.62-5.46,2.22-9.24.54-3.48.84-7.08.84-9.3,0-5.22-2.64-6.54-2.64-8.16,0-1.44.66-2.52,2.82-2.52,1.62,0,3.72.18,5.1.18,1.62,0,3.78-.18,5.16-.18,1.56,0,2.16.78,2.16,1.86,0,3.42-2.7,1.92-4.14,8.46-.3,1.44-.84,4.38-1.02,5.76-.42,3.12-.66,5.76-1.02,8.22Z"/>
      <path class="cls-1" d="M331.79,35.73c-.24.6-.54,2.34-.54,3.72,0,2.58,1.56,3.96,3.18,4.92,1.32.78,2.58,1.5,2.58,2.82,0,2.28-2.1,2.88-4.56,2.88s-6.66-.18-9.12-.18-5.7.18-7.56.18c-1.68,0-2.52-.72-2.52-1.86,0-2.7,2.88-2.46,4.44-7.2,1.02-3.18,3.3-18.72,3.3-21.96,0-4.92-2.28-5.22-2.28-7.44,0-1.5.72-2.7,2.82-2.7,4.62,0,4.5.18,8.94.18,3.24,0,7.56-.24,10.68-.24,6.6,0,11.82,3.84,11.82,10.62,0,8.52-5.7,15.6-16.32,15.6-2.52,0-2.64-.24-3.72-.24-.54,0-.9.3-1.14.9ZM335.57,15.81c-.48,0-.72.24-1.14,2.1-.54,2.46-.9,5.94-.9,7.68,0,1.32.36,2.4,1.5,2.4,1.68,0,3.48-2.46,3.48-6.84,0-3-1.32-5.34-2.94-5.34Z"/>
      <path class="cls-2" d="M350.87,50.25c-2.94,0-5.46-1.8-5.46-5.4,0-4.38,3.66-7.02,7.08-7.02,2.88,0,5.52,1.92,5.52,5.58,0,4.26-3.48,6.84-7.14,6.84Z"/>
    </g>
  </g>
</svg>